<svg width="146" height="46" viewBox="0 0 146 46" fill="none" xmlns="http://www.w3.org/2000/svg">
<path d="M57.3219 24.9276H48.2214L45.556 33H42.129L50.8868 7.33571H54.8469L63.6047 33H60.0635L57.3219 24.9276ZM48.9068 22.3383H56.6746L54.1234 14.9512C53.5522 13.2758 53.1715 11.7527 52.7907 10.2677H52.7145C52.3338 11.7527 51.953 13.352 51.4199 14.9131L48.9068 22.3383ZM67.6615 11.1435L70.9362 10.1534V14.5704H75.7339V17.1216H70.9362V27.0599C70.9362 29.3446 71.5835 30.6392 73.4493 30.6392C74.3631 30.6392 74.8962 30.563 75.3912 30.4107L75.5435 32.9619C74.8962 33.1904 73.8681 33.4189 72.5735 33.4189C71.0123 33.4189 69.7557 32.8858 68.9561 32.01C68.0423 30.9819 67.6615 29.3446 67.6615 27.1741V17.1216H64.8057V14.5704H67.6615V11.1435ZM94.0948 24.3945H81.1484C81.2245 28.9257 84.0804 30.7915 87.4693 30.7915C89.8682 30.7915 91.3532 30.3726 92.5717 29.8396L93.1809 32.2384C92.0005 32.7715 89.9443 33.4189 87.0123 33.4189C81.3388 33.4189 77.9499 29.6492 77.9499 24.0898C77.9499 18.5305 81.2245 14.1897 86.5935 14.1897C92.6478 14.1897 94.209 19.4444 94.209 22.8333C94.209 23.5187 94.1709 24.0137 94.0948 24.3945ZM81.1865 21.9956H90.9724C91.0105 19.9013 90.0966 16.5886 86.3269 16.5886C82.9 16.5886 81.453 19.6728 81.1865 21.9956ZM98.3586 33V5.96491H101.709V33H98.3586ZM110.708 33H107.357V14.5704H110.708V33ZM109.033 7.29763C110.251 7.29763 111.089 8.21149 111.089 9.3919C111.089 10.5342 110.289 11.4481 108.957 11.4481C107.738 11.4481 106.939 10.5342 106.939 9.3919C106.939 8.24957 107.776 7.29763 109.033 7.29763ZM131.094 24.3945H118.148C118.224 28.9257 121.08 30.7915 124.468 30.7915C126.867 30.7915 128.352 30.3726 129.571 29.8396L130.18 32.2384C129 32.7715 126.944 33.4189 124.012 33.4189C118.338 33.4189 114.949 29.6492 114.949 24.0898C114.949 18.5305 118.224 14.1897 123.593 14.1897C129.647 14.1897 131.208 19.4444 131.208 22.8333C131.208 23.5187 131.17 24.0137 131.094 24.3945ZM118.186 21.9956H127.972C128.01 19.9013 127.096 16.5886 123.326 16.5886C119.899 16.5886 118.452 19.6728 118.186 21.9956ZM135.358 33V20.3202C135.358 18.1497 135.32 16.2839 135.205 14.5704H138.137L138.29 18.2259H138.404C139.242 15.7509 141.298 14.1897 143.544 14.1897C143.887 14.1897 144.154 14.2277 144.458 14.2658V17.4263C144.116 17.3501 143.773 17.3501 143.316 17.3501C140.955 17.3501 139.28 19.1017 138.823 21.6148C138.747 22.0717 138.709 22.6429 138.709 23.176V33H135.358Z" fill="url(#paint0_linear_0_11)"/>
<path d="M1.56427 28.9333V15.3077C2.65514 15.1225 3.95184 14.999 5.37203 14.999C7.94484 14.999 9.77668 15.6165 10.991 16.7279C12.2466 17.8599 12.967 19.4654 12.967 21.7089C12.967 23.9729 12.2466 25.8254 10.9705 27.1015C9.65318 28.3982 7.5126 29.098 4.8163 29.098C3.5196 29.098 2.4699 29.0362 1.56427 28.9333ZM3.35494 16.6044V27.5749C3.80776 27.6366 4.4664 27.6572 5.1662 27.6572C9.01513 27.6572 11.0734 25.5166 11.0734 21.7706C11.094 18.498 9.24153 16.4192 5.45436 16.4192C4.52815 16.4192 3.82834 16.5015 3.35494 16.6044ZM15.2519 28.9745V15.1019H17.0632V27.472H22.991V28.9745H15.2519ZM25.8064 28.9745V16.625H21.587V15.1019H31.8577V16.625H27.6177V28.9745H25.8064Z" fill="url(#paint1_linear_0_11)"/>
<defs>
<linearGradient id="paint0_linear_0_11" x1="40.4394" y1="-28.3609" x2="178.513" y2="34.6564" gradientUnits="userSpaceOnUse">
<stop stop-color="white"/>
<stop offset="1" stop-color="white"/>
</linearGradient>
<linearGradient id="paint1_linear_0_11" x1="-0.226951" y1="-4.43905" x2="47.894" y2="7.99513" gradientUnits="userSpaceOnUse">
<stop stop-color="white"/>
<stop offset="1" stop-color="white"/>
</linearGradient>
</defs>
</svg>
